<svg xmlns="http://www.w3.org/2000/svg" width="73.2" height="61.744" viewBox="0 0 73.2 61.744">
    <g id="组_2" data-name="组 2" transform="translate(0 -87.04)">
      <path id="路径_1" data-name="路径 1" d="M36.6,148.784a5.5,5.5,0,0,1-3.587-1.318L9.333,126.934c-.037-.037-.073-.073-.11-.073C4.685,122.286,0,116.613,0,109A21.977,21.977,0,0,1,21.96,87.04a21.692,21.692,0,0,1,14.64,5.6,21.692,21.692,0,0,1,14.64-5.6A21.977,21.977,0,0,1,73.2,109c0,7.942-4.758,13.4-9.223,17.861-.037.037-.073.073-.11.073l-23.68,20.533A5.5,5.5,0,0,1,36.6,148.784ZM62.659,125.58Z" fill="#ff2b2b"/>
      <path id="路径_2" data-name="路径 2" d="M700,250.384a1.829,1.829,0,0,1-1.135-3.257,7.322,7.322,0,0,0-4.538-13.066h-.22a1.831,1.831,0,1,1-.146-3.66h.329a11,11,0,0,1,6.808,19.618A1.727,1.727,0,0,1,700,250.384Z" transform="translate(-642.725 -133.112)" fill="#fff"/>
    </g>
  </svg>
  