<svg id="组_3" data-name="组 3" xmlns="http://www.w3.org/2000/svg" width="66.798" height="66.798" viewBox="0 0 66.798 66.798">
    <path id="路径_3" data-name="路径 3" d="M66.8,1024h0Z" transform="translate(0 -957.202)" fill="#fff"/>
    <path id="路径_4" data-name="路径 4" d="M29.392,848H87.71a3.392,3.392,0,0,1,0,6.784H29.392a3.392,3.392,0,0,1,0-6.784Z" transform="translate(-24.304 -792.683)" fill="#d8dde3"/>
    <path id="路径_5" data-name="路径 5" d="M29.457,484H87.645a3.457,3.457,0,1,1,0,6.915H29.457a3.457,3.457,0,1,1,0-6.915Z" transform="translate(-24.304 -452.427)" fill="#d8dde3"/>
    <path id="路径_6" data-name="路径 6" d="M29.392,124H87.71a3.392,3.392,0,0,1,0,6.784H29.392a3.392,3.392,0,1,1,0-6.784Z" transform="translate(-24.304 -115.911)" fill="#d8dde3"/>
    <path id="路径_7" data-name="路径 7" d="M3.392,98H61.71a3.392,3.392,0,1,1,0,6.784H3.392a3.392,3.392,0,0,1,0-6.784Z" transform="translate(0 -91.607)" fill="#505873"/>
    <path id="路径_8" data-name="路径 8" d="M0,98m3.392,0h14.09q3.392,0,3.392,3.392h0q0,3.392-3.392,3.392H3.392Q0,104.784,0,101.392H0Q0,98,3.392,98Z" transform="translate(0 -91.607)" fill="#ff402a"/>
    <path id="路径_9" data-name="路径 9" d="M3.457,458H61.645a3.457,3.457,0,0,1,0,6.915H3.457a3.457,3.457,0,0,1,0-6.915Z" transform="translate(0 -428.123)" fill="#505873"/>
    <path id="路径_10" data-name="路径 10" d="M3.392,820H61.71a3.392,3.392,0,1,1,0,6.784H3.392a3.392,3.392,0,1,1,0-6.784Z" transform="translate(0 -766.509)" fill="#505873"/>
    <path id="路径_11" data-name="路径 11" d="M151.828,45.656a7.828,7.828,0,1,1,7.828-7.828A7.837,7.837,0,0,1,151.828,45.656Z" transform="translate(-134.607 -28.043)" fill="#fff"/>
    <path id="路径_12" data-name="路径 12" d="M123.785,3.914a5.871,5.871,0,1,0,5.871,5.871,5.878,5.878,0,0,0-5.871-5.871m0-3.914A9.785,9.785,0,1,1,114,9.785,9.785,9.785,0,0,1,123.785,0Z" transform="translate(-106.563)" fill="#505873"/>
    <path id="路径_13" data-name="路径 13" d="M3.457,458H43.119a3.457,3.457,0,0,1,0,6.915H3.457a3.457,3.457,0,0,1,0-6.915Z" transform="translate(0 -428.123)" fill="#ff402a"/>
    <path id="路径_14" data-name="路径 14" d="M3.392,820h22.44a3.392,3.392,0,1,1,0,6.784H3.392a3.392,3.392,0,1,1,0-6.784Z" transform="translate(0 -766.509)" fill="#ff402a"/>
    <path id="路径_15" data-name="路径 15" d="M593.828,407.656a7.828,7.828,0,1,1,7.828-7.828A7.837,7.837,0,0,1,593.828,407.656Z" transform="translate(-547.774 -366.429)" fill="#d8dde3"/>
    <path id="路径_16" data-name="路径 16" d="M565.785,365.914a5.871,5.871,0,1,0,5.871,5.871,5.878,5.878,0,0,0-5.871-5.871m0-3.914A9.785,9.785,0,1,1,556,371.785,9.785,9.785,0,0,1,565.785,362Z" transform="translate(-519.731 -338.386)" fill="#505873"/>
    <path id="路径_17" data-name="路径 17" d="M293.828,769.656a7.828,7.828,0,1,1,7.828-7.828A7.837,7.837,0,0,1,293.828,769.656Z" transform="translate(-267.344 -704.815)" fill="#fff"/>
    <path id="路径_18" data-name="路径 18" d="M265.785,727.914a5.871,5.871,0,1,0,5.871,5.871,5.878,5.878,0,0,0-5.871-5.871m0-3.914A9.785,9.785,0,1,1,256,733.785,9.785,9.785,0,0,1,265.785,724Z" transform="translate(-239.3 -676.772)" fill="#505873"/>
  </svg>
  