<svg xmlns="http://www.w3.org/2000/svg" width="41.1" height="35.872" viewBox="0 0 41.1 35.872">
    <path id="路径_1" data-name="路径 1" d="M20.55,122.912a3.028,3.028,0,0,1-2.014-.766L5.24,110.217c-.021-.021-.041-.043-.062-.043C2.63,107.517,0,104.221,0,99.8A12.559,12.559,0,0,1,12.33,87.04a11.951,11.951,0,0,1,8.22,3.253,11.951,11.951,0,0,1,8.22-3.253A12.559,12.559,0,0,1,41.1,99.8c0,4.614-2.671,7.783-5.179,10.377-.021.021-.041.043-.062.043l-13.3,11.929A3.028,3.028,0,0,1,20.55,122.912ZM35.181,109.431Z" transform="translate(0 -87.04)" fill="#ff2b2b"/>
  </svg>
  